<svg width="17" height="16" viewBox="0 0 17 16" fill="none" xmlns="http://www.w3.org/2000/svg">
<path fill-rule="evenodd" clip-rule="evenodd" d="M8.50016 13.3333C11.4457 13.3333 13.8335 10.9455 13.8335 8C13.8335 5.05448 11.4457 2.66667 8.50016 2.66667C5.55464 2.66667 3.16683 5.05448 3.16683 8C3.16683 10.9455 5.55464 13.3333 8.50016 13.3333ZM8.50016 14.6667C12.1821 14.6667 15.1668 11.6819 15.1668 8C15.1668 4.3181 12.1821 1.33333 8.50016 1.33333C4.81826 1.33333 1.8335 4.3181 1.8335 8C1.8335 11.6819 4.81826 14.6667 8.50016 14.6667Z" fill="#656B70"/>
<path fill-rule="evenodd" clip-rule="evenodd" d="M9.66429 12.1178C10.1568 11.1328 10.4998 9.67884 10.4998 8C10.4998 6.32116 10.1568 4.86718 9.66429 3.88224C9.13195 2.81755 8.64321 2.66667 8.49984 2.66667C8.35647 2.66667 7.86773 2.81755 7.33538 3.88224C6.84292 4.86718 6.49984 6.32116 6.49984 8C6.49984 9.67884 6.84292 11.1328 7.33538 12.1178C7.86773 13.1824 8.35647 13.3333 8.49984 13.3333C8.64321 13.3333 9.13195 13.1824 9.66429 12.1178ZM8.49984 14.6667C10.3408 14.6667 11.8332 11.6819 11.8332 8C11.8332 4.3181 10.3408 1.33333 8.49984 1.33333C6.65889 1.33333 5.1665 4.3181 5.1665 8C5.1665 11.6819 6.65889 14.6667 8.49984 14.6667Z" fill="#656B70"/>
<path fill-rule="evenodd" clip-rule="evenodd" d="M15.1339 8.66667C15.1557 8.44739 15.1668 8.225 15.1668 8C15.1668 7.775 15.1557 7.5526 15.1339 7.33333H1.86641C1.84464 7.5526 1.8335 7.775 1.8335 8C1.8335 8.225 1.84464 8.44739 1.86641 8.66667H15.1339Z" fill="#656B70"/>
</svg>
